# xmcd
#
# Track frame offsets:
#   150
#   20902
#   34827
#   54995
#   75202
#   99337
#   125132
#   143862
#   157765
#   184252
#   198757
#   215687
#   234702
#   260957
#   278652
#
# Disc length: 3899 seconds
#
# Revision: 0
# Processed by: cddbd v1.5.2PL0 Copyright (c) Steve Scherf et al.
# Submitted via: GXTranscoder 2.0.1939
#
DISCID=d30f390f
DTITLE=Ben Harper - Diamonds On The Inside
DYEAR=2003
DGENRE=Blues
TTITLE0=With My Own Two Hands
TTITLE1=When It's Good
TTITLE2=Diamonds On The Inside
TTITLE3=Touch From Your Lust
TTITLE4=When She Believes
TTITLE5=Brown Eyed Blues
TTITLE6=Bring The Funk
TTITLE7=Everything
TTITLE8=Amen Omen
TTITLE9=Temporary Remedy
TTITLE10=So High So Low
TTITLE11=Blessed To Be A Witness
TTITLE12=Picture Of Jesus
TTITLE13=She's Only Happy In The Sun
TTITLE14=Addtional Track #15
EXTD=
EXTT0=
EXTT1=
EXTT2=
EXTT3=
EXTT4=
EXTT5=
EXTT6=
EXTT7=
EXTT8=
EXTT9=
EXTT10=
EXTT11=
EXTT12=
EXTT13=
EXTT14=
PLAYORDER=
